<svg width="35" height="35" viewBox="0 0 35 35" fill="none" xmlns="http://www.w3.org/2000/svg">
<circle cx="17.5" cy="17.5" r="17.5" fill="white"/>
<path d="M25.25 28.0001C26.1612 28.0001 26.9 27.2613 26.9 26.3501C26.9 25.4388 26.1612 24.7001 25.25 24.7001C24.3387 24.7001 23.6 25.4388 23.6 26.3501C23.6 27.2613 24.3387 28.0001 25.25 28.0001Z" fill="#868686" stroke="#868686" stroke-width="3.34354" stroke-linecap="round" stroke-linejoin="round"/>
<path d="M14.25 28.0001C15.1612 28.0001 15.9 27.2613 15.9 26.3501C15.9 25.4388 15.1612 24.7001 14.25 24.7001C13.3387 24.7001 12.6 25.4388 12.6 26.3501C12.6 27.2613 13.3387 28.0001 14.25 28.0001Z" fill="#868686" stroke="#868686" stroke-width="3.34354" stroke-linecap="round" stroke-linejoin="round"/>
<path d="M9.3 8.2H28L25.8 20.3H11.5L9.3 8.2ZM9.3 8.2C9.11666 7.46666 8.2 6 6 6" stroke="#868686" stroke-width="3.34354" stroke-linecap="round" stroke-linejoin="round"/>
<path d="M25.7999 20.2999H11.4999H9.55377C7.59103 20.2999 6.54993 21.1592 6.54993 22.4999C6.54993 23.8406 7.59103 24.6999 9.55377 24.6999H25.2499" stroke="#868686" stroke-width="3.34354" stroke-linecap="round" stroke-linejoin="round"/>
</svg>
