<svg width="35" height="35" viewBox="0 0 35 35" fill="none" xmlns="http://www.w3.org/2000/svg">
<circle cx="17.5" cy="17.5" r="17.5" fill="white"/>
<path d="M6.38887 7H28.6109C29.3779 7 29.9997 7.62171 29.9997 8.38869L30 10.5912C30.0001 10.9596 29.8538 11.313 29.5932 11.5735L20.6843 20.4819C20.4239 20.7423 20.2775 21.0956 20.2775 21.4639V30.2207C20.2775 31.1243 19.4284 31.7874 18.5519 31.5682L15.7741 30.8738C15.1558 30.7192 14.7221 30.1637 14.7221 29.5263V21.4639C14.7221 21.0956 14.5757 20.7423 14.3153 20.4819L5.40679 11.5734C5.14632 11.3129 5 10.9597 5 10.5913V8.38887C5 7.62182 5.62181 7 6.38887 7Z" fill="#868686"/>
</svg>
