<svg width="37" height="35" viewBox="0 0 37 35" fill="none" xmlns="http://www.w3.org/2000/svg">
<circle cx="17.5" cy="17.5" r="17.5" fill="white"/>
<path fill-rule="evenodd" clip-rule="evenodd" d="M15.5 8C15.5 11.3137 18.1863 14 21.5 14C24.8137 14 27.5 11.3137 27.5 8C27.5 4.68629 24.8137 2 21.5 2C18.1863 2 15.5 4.68629 15.5 8ZM21.475 17C14.3929 17 8.58239 20.6398 8.00098 27.7988C7.96931 28.1888 8.71507 29 9.09125 29H33.8701C34.9969 29 35.0144 28.0932 34.9969 27.8C34.5573 20.4398 28.6568 17 21.475 17Z" fill="black"/>
<path fill-rule="evenodd" clip-rule="evenodd" d="M7.5 8C7.5 11.3137 10.1863 14 13.5 14C16.8137 14 19.5 11.3137 19.5 8C19.5 4.68629 16.8137 2 13.5 2C10.1863 2 7.5 4.68629 7.5 8ZM13.475 17C6.39287 17 0.582388 20.6398 0.000977526 27.7988C-0.0306926 28.1888 0.715068 29 1.09125 29H25.8701C26.9969 29 27.0144 28.0932 26.9969 27.8C26.5573 20.4398 20.6568 17 13.475 17Z" fill="#868686"/>
<path d="M29 5.5H36" stroke="#868686" stroke-width="2" stroke-linecap="round"/>
<path d="M32.5 9V2" stroke="#868686" stroke-width="2" stroke-linecap="round"/>
</svg>
