<svg width="35" height="35" viewBox="0 0 35 35" fill="none" xmlns="http://www.w3.org/2000/svg">
<circle cx="17.5" cy="17.5" r="17.5" fill="white"/>
<path fill-rule="evenodd" clip-rule="evenodd" d="M26 18V3C23.0019 3 20.5714 5.68629 20.5714 9V18H26ZM8.96819 11.3163C8.96819 11.3163 8.35714 5.31252 8.35714 4.56255C8.35714 3.81258 7 3.81258 7 4.56255V11.3125C7 14.212 9.12665 16.5625 11.75 16.5625C14.3734 16.5625 16.5 14.3125 16.5 11.3125V4.56255C16.5 3.81247 15.1429 3.81255 15.1429 4.56255C15.1429 5.31255 14.5318 11.3163 14.5318 11.3163C14.5116 11.3152 14.4714 11.3812 14.4145 11.4745C14.2809 11.6935 14.0559 12.0625 13.7857 12.0625C13.4005 12.0625 13.078 11.7399 13.0396 11.3163C13.0396 11.3163 12.4286 5.31252 12.4286 4.56255C12.4286 3.81258 11.0714 3.81252 11.0714 4.56255C11.0714 5.31258 10.4604 11.3163 10.4604 11.3163C10.422 11.7399 10.0995 12.0625 9.71429 12.0625C9.32907 12.0625 9.00652 11.7399 8.96819 11.3163ZM13.2642 19.6641C13.2195 18.7305 12.5549 18 11.75 18C10.9451 18 10.2804 18.7305 10.2358 19.6641L9.71743 30.5038C9.71534 30.5475 9.71429 30.5913 9.71429 30.635C9.71429 31.9412 10.6257 33 11.75 33C11.7876 33 11.8253 32.9988 11.8629 32.9964C12.9854 32.9239 13.8449 31.808 13.7825 30.5038L13.2642 19.6641ZM23.9643 19.5C24.7855 19.5 25.4671 20.3398 25.5256 21.4237L25.9948 30.1145C26.0749 31.5984 25.2307 32.8872 24.1093 32.9932C24.061 32.9977 24.0127 33 23.9643 33C22.84 33 21.9286 31.7941 21.9286 30.3064C21.9286 30.2424 21.9303 30.1784 21.9338 30.1145L22.4029 21.4237C22.4614 20.3398 23.143 19.5 23.9643 19.5Z" fill="#868686"/>
</svg>
