<svg width="35" height="35" viewBox="0 0 35 35" fill="none" xmlns="http://www.w3.org/2000/svg">
<circle cx="17.5" cy="17.5" r="17.5" fill="white"/>
<path d="M8 7C6.34315 7 5 8.34315 5 10V13.375C5 15.0319 6.34315 16.375 8 16.375H11.375C13.0319 16.375 14.375 15.0319 14.375 13.375V10C14.375 8.34315 13.0319 7 11.375 7H8ZM19.0625 7C18.1996 7 17.5 7.69956 17.5 8.5625C17.5 9.42544 18.1996 10.125 19.0625 10.125H28.4375C29.3004 10.125 30 9.42544 30 8.5625C30 7.69956 29.3004 7 28.4375 7H19.0625ZM19.0625 13.25C18.1996 13.25 17.5 13.9496 17.5 14.8125C17.5 15.6754 18.1996 16.375 19.0625 16.375H25.3125C26.1754 16.375 26.875 15.6754 26.875 14.8125C26.875 13.9496 26.1754 13.25 25.3125 13.25H19.0625ZM8 19.5C6.34315 19.5 5 20.8431 5 22.5V25.875C5 27.5319 6.34315 28.875 8 28.875H11.375C13.0319 28.875 14.375 27.5319 14.375 25.875V22.5C14.375 20.8431 13.0319 19.5 11.375 19.5H8ZM19.0625 19.5C18.1996 19.5 17.5 20.1996 17.5 21.0625C17.5 21.9254 18.1996 22.625 19.0625 22.625H28.4375C29.3004 22.625 30 21.9254 30 21.0625C30 20.1996 29.3004 19.5 28.4375 19.5H19.0625ZM19.0625 25.75C18.1996 25.75 17.5 26.4496 17.5 27.3125C17.5 28.1754 18.1996 28.875 19.0625 28.875H25.3125C26.1754 28.875 26.875 28.1754 26.875 27.3125C26.875 26.4496 26.1754 25.75 25.3125 25.75H19.0625Z" fill="#868686"/>
</svg>
