<svg width="35" height="35" viewBox="0 0 35 35" fill="none" xmlns="http://www.w3.org/2000/svg">
<ellipse cx="17.4515" cy="17.1154" rx="17.4515" ry="17.1154" fill="white"/>
<path d="M7 27.2397C6.44772 27.2397 6 26.792 6 26.2397V24.7816C6 24.2293 6.44772 23.7816 7 23.7816H8.60993V14.5816C8.60993 12.6024 9.20804 10.8243 10.4043 9.24752C11.6005 7.67069 13.1556 6.6104 15.0695 6.06667V5.41418C15.0695 4.74365 15.3046 4.1736 15.7748 3.70403C16.2451 3.23468 16.816 3 17.4876 3C18.1592 3 18.7288 3.23468 19.1965 3.70403C19.6641 4.1736 19.8979 4.74365 19.8979 5.41418V6.06667C21.8118 6.6104 23.3723 7.66307 24.5794 9.22468C25.7865 10.7863 26.3901 12.5719 26.3901 14.5816V23.7816H28C28.5523 23.7816 29 24.2293 29 24.7816V26.2397C29 26.792 28.5523 27.2397 28 27.2397H7ZM17.4824 31.5461C16.6568 31.5461 15.9504 31.2522 15.3631 30.6643C14.7759 30.0766 14.4823 29.3701 14.4823 28.5447H20.4851C20.4851 29.3712 20.1911 30.078 19.603 30.6652C19.0151 31.2525 18.3082 31.5461 17.4824 31.5461Z" fill="#868686"/>
</svg>
