<svg width="35" height="35" viewBox="0 0 35 35" fill="none" xmlns="http://www.w3.org/2000/svg">
<circle cx="17.5" cy="17.5" r="17.5" fill="white"/>
<rect x="4" y="18.6522" width="14.3478" height="14.3478" rx="2" fill="#868686"/>
<rect x="19.6522" y="3" width="14.3478" height="14.3478" rx="2" fill="#868686"/>
<rect x="4" y="3" width="14.3478" height="14.3478" rx="2" fill="#868686"/>
<path fill-rule="evenodd" clip-rule="evenodd" d="M21.1304 28.2609C16.0878 28.2609 12 24.173 12 19.1304C12 14.0878 16.0878 10 21.1304 10C26.173 10 30.2609 14.0878 30.2609 19.1304C30.2609 20.9671 29.7186 22.6771 28.7853 24.1091C28.7857 24.1095 28.7861 24.1099 28.7866 24.1103L33.6667 28.9264C34.4932 29.7691 34.4932 31.1355 33.6667 31.9783C32.8402 32.821 31.5003 32.821 30.6738 31.9783L25.7937 27.1623C25.7563 27.1241 25.7205 27.0849 25.6865 27.0447C24.3456 27.8183 22.7897 28.2609 21.1304 28.2609ZM21.1304 25.6519C24.7322 25.6519 27.6521 22.7321 27.6521 19.1302C27.6521 15.5283 24.7322 12.6085 21.1304 12.6085C17.5285 12.6085 14.6086 15.5283 14.6086 19.1302C14.6086 22.7321 17.5285 25.6519 21.1304 25.6519Z" fill="black"/>
</svg>
