<svg width="43" height="43" viewBox="0 0 43 43" fill="none" xmlns="http://www.w3.org/2000/svg">
<g filter="url(#filter0_d_1216_18)">
<circle cx="21.5" cy="17.5" r="17.5" fill="#FAE1BD"/>
<g filter="url(#filter1_i_1216_18)">
<path d="M10.3889 7H32.6109C33.3779 7 33.9997 7.62171 33.9997 8.38869L34 10.5912C34.0001 10.9596 33.8538 11.313 33.5932 11.5735L24.6843 20.4819C24.4239 20.7423 24.2775 21.0956 24.2775 21.4639V30.2207C24.2775 31.1243 23.4284 31.7874 22.5519 31.5682L19.7741 30.8738C19.1558 30.7192 18.7221 30.1637 18.7221 29.5263V21.4639C18.7221 21.0956 18.5757 20.7423 18.3153 20.4819L9.40679 11.5734C9.14632 11.3129 9 10.9597 9 10.5913V8.38887C9 7.62182 9.62181 7 10.3889 7Z" fill="#FFBE98"/>
</g>
</g>
<defs>
<filter id="filter0_d_1216_18" x="0" y="0" width="43" height="43" filterUnits="userSpaceOnUse" color-interpolation-filters="sRGB">
<feFlood flood-opacity="0" result="BackgroundImageFix"/>
<feColorMatrix in="SourceAlpha" type="matrix" values="0 0 0 0 0 0 0 0 0 0 0 0 0 0 0 0 0 0 127 0" result="hardAlpha"/>
<feOffset dy="4"/>
<feGaussianBlur stdDeviation="2"/>
<feComposite in2="hardAlpha" operator="out"/>
<feColorMatrix type="matrix" values="0 0 0 0 0 0 0 0 0 0 0 0 0 0 0 0 0 0 0.25 0"/>
<feBlend mode="normal" in2="BackgroundImageFix" result="effect1_dropShadow_1216_18"/>
<feBlend mode="normal" in="SourceGraphic" in2="effect1_dropShadow_1216_18" result="shape"/>
</filter>
<filter id="filter1_i_1216_18" x="9" y="7" width="25" height="28.6104" filterUnits="userSpaceOnUse" color-interpolation-filters="sRGB">
<feFlood flood-opacity="0" result="BackgroundImageFix"/>
<feBlend mode="normal" in="SourceGraphic" in2="BackgroundImageFix" result="shape"/>
<feColorMatrix in="SourceAlpha" type="matrix" values="0 0 0 0 0 0 0 0 0 0 0 0 0 0 0 0 0 0 127 0" result="hardAlpha"/>
<feOffset dy="4"/>
<feGaussianBlur stdDeviation="2"/>
<feComposite in2="hardAlpha" operator="arithmetic" k2="-1" k3="1"/>
<feColorMatrix type="matrix" values="0 0 0 0 0 0 0 0 0 0 0 0 0 0 0 0 0 0 0.25 0"/>
<feBlend mode="normal" in2="shape" result="effect1_innerShadow_1216_18"/>
</filter>
</defs>
</svg>
