<svg width="43" height="43" viewBox="0 0 43 43" fill="none" xmlns="http://www.w3.org/2000/svg">
<g filter="url(#filter0_d_756_341)">
<circle cx="21.5" cy="17.5" r="17.5" fill="#FAE1BD"/>
<g filter="url(#filter1_i_756_341)">
<path d="M30.95 21.85C32.9615 19.879 35 17.5165 35 14.425C35 12.4558 34.2177 10.5672 32.8253 9.17473C31.4328 7.78227 29.5442 7 27.575 7C25.199 7 23.525 7.675 21.5 9.7C19.475 7.675 17.801 7 15.425 7C13.4558 7 11.5672 7.78227 10.1747 9.17473C8.78227 10.5672 8 12.4558 8 14.425C8 17.53 10.025 19.8925 12.05 21.85L21.5 31.3L30.95 21.85Z" fill="#FFBE98"/>
</g>
</g>
<defs>
<filter id="filter0_d_756_341" x="0" y="0" width="43" height="43" filterUnits="userSpaceOnUse" color-interpolation-filters="sRGB">
<feFlood flood-opacity="0" result="BackgroundImageFix"/>
<feColorMatrix in="SourceAlpha" type="matrix" values="0 0 0 0 0 0 0 0 0 0 0 0 0 0 0 0 0 0 127 0" result="hardAlpha"/>
<feOffset dy="4"/>
<feGaussianBlur stdDeviation="2"/>
<feComposite in2="hardAlpha" operator="out"/>
<feColorMatrix type="matrix" values="0 0 0 0 0 0 0 0 0 0 0 0 0 0 0 0 0 0 0.25 0"/>
<feBlend mode="normal" in2="BackgroundImageFix" result="effect1_dropShadow_756_341"/>
<feBlend mode="normal" in="SourceGraphic" in2="effect1_dropShadow_756_341" result="shape"/>
</filter>
<filter id="filter1_i_756_341" x="8" y="7" width="27" height="28.3" filterUnits="userSpaceOnUse" color-interpolation-filters="sRGB">
<feFlood flood-opacity="0" result="BackgroundImageFix"/>
<feBlend mode="normal" in="SourceGraphic" in2="BackgroundImageFix" result="shape"/>
<feColorMatrix in="SourceAlpha" type="matrix" values="0 0 0 0 0 0 0 0 0 0 0 0 0 0 0 0 0 0 127 0" result="hardAlpha"/>
<feOffset dy="4"/>
<feGaussianBlur stdDeviation="2"/>
<feComposite in2="hardAlpha" operator="arithmetic" k2="-1" k3="1"/>
<feColorMatrix type="matrix" values="0 0 0 0 0 0 0 0 0 0 0 0 0 0 0 0 0 0 0.25 0"/>
<feBlend mode="normal" in2="shape" result="effect1_innerShadow_756_341"/>
</filter>
</defs>
</svg>
